<svg xmlns="http://www.w3.org/2000/svg" viewBox="0 0 108 108">
  <rect width="108" height="108" fill="#083B4A"/>
  <path fill="#fff" d="M54 79C50 75 28 62 28 45c0-10.5 8-18 18-18 5.5 0 10 3.2 12.5 7.8C61 30.2 65.5 27 71 27c10 0 18 7.5 18 18 0 17-22 30-26 34-2.5 2.2-6.5 2.2-9 0Z"/>
  <path fill="none" stroke="#083B4A" stroke-linecap="round" stroke-linejoin="round" stroke-width="5" d="M28 54h14l6-13 7 27 7-20 6 9h8"/>
  <path fill="none" stroke="#37E0C1" stroke-linecap="round" stroke-linejoin="round" stroke-width="5" d="m73 59 13-13m-8 0h8v8"/>
</svg>
